<svg width="75" height="75" viewBox="0 0 75 75" fill="none" xmlns="http://www.w3.org/2000/svg">
<circle opacity="0.24" cx="37.5" cy="37.5" r="37.5" fill="white"/>
<path fill-rule="evenodd" clip-rule="evenodd" d="M58 25.7917C56.5251 26.4333 54.9485 26.8667 53.2871 27.0667C54.9824 26.0667 56.2878 24.4833 56.8981 22.6C55.313 23.525 53.5584 24.2 51.6851 24.5583C50.1848 22.9833 48.0487 22 45.6923 22C41.1574 22 37.4872 25.6167 37.4872 30.075C37.4872 30.7083 37.555 31.325 37.6991 31.9167C30.8756 31.5833 24.8235 28.3667 20.7803 23.475C20.0767 24.6667 19.6698 26.0583 19.6698 27.5333C19.6698 30.3333 21.1278 32.8083 23.3316 34.2583C21.9754 34.225 20.704 33.8583 19.602 33.25C19.602 33.2833 19.602 33.3167 19.602 33.35C19.602 37.2667 22.4331 40.525 26.1882 41.2667C25.5016 41.45 24.7726 41.55 24.0267 41.55C23.5012 41.55 22.9841 41.5 22.484 41.4C23.5266 44.6083 26.5611 46.9417 30.1551 47.0083C27.3494 49.175 23.8063 50.4667 19.958 50.4667C19.2969 50.4667 18.6442 50.425 18 50.35C21.6194 52.6667 25.9339 54 30.562 54C45.6754 54 53.9313 41.6917 53.9313 31.0167C53.9313 30.6667 53.9229 30.3167 53.9059 29.975C55.5079 28.8333 56.8981 27.4167 58 25.7917Z" fill="white"/>
</svg>
