<svg width="75" height="75" viewBox="0 0 75 75" fill="none" xmlns="http://www.w3.org/2000/svg">
<circle opacity="0.235096" cx="37.5" cy="37.5" r="37.5" fill="#E1BEE7"/>
<circle cx="37.5" cy="38" r="7" fill="#E1BEE7"/>
<path fill-rule="evenodd" clip-rule="evenodd" d="M31.2547 30.676C33.0679 28.8628 35.4786 27.8535 38.0428 27.8535C40.6071 27.8535 43.0178 28.8681 44.831 30.6813C45.9814 31.8318 46.8034 33.2143 47.2509 34.7571H54.4571V25.0714C54.4571 22.7991 52.7008 21.0428 50.4286 21.0428H25.7428C23.4706 21.0428 21.5428 22.7991 21.5428 25.0714V34.7571H28.8347C29.2823 33.2143 30.1042 31.8265 31.2547 30.676ZM51.7143 28.1743C51.7143 28.7802 51.2231 29.2714 50.6171 29.2714H47.3257C46.7198 29.2714 46.2286 28.7803 46.2286 28.1743V24.8828C46.2286 24.2769 46.7197 23.7857 47.3257 23.7857H50.6171C51.223 23.7857 51.7143 24.2768 51.7143 24.8828V28.1743Z" fill="white"/>
<path fill-rule="evenodd" clip-rule="evenodd" d="M44.831 44.2525C43.0178 46.0657 40.6071 47.0535 38.0428 47.0535C35.4786 47.0535 33.0679 46.0711 31.2547 44.2579C29.4448 42.448 28.4468 39.9857 28.443 37.5H21.5428V49.7571C21.5428 52.0294 23.4706 53.9571 25.7428 53.9571H50.4286C52.7008 53.9571 54.4571 52.0294 54.4571 49.7571V37.5H47.6427C47.639 39.9857 46.6409 42.4426 44.831 44.2525Z" fill="white"/>
</svg>
